<?xml version="1.0" standalone="no"?>
<!DOCTYPE svg PUBLIC "-//W3C//DTD SVG 20010904//EN"
 "http://www.w3.org/TR/2001/REC-SVG-20010904/DTD/svg10.dtd">
<svg version="1.0" xmlns="http://www.w3.org/2000/svg"
 width="700.000000pt" height="700.000000pt" viewBox="0 0 700.000000 700.000000"
 preserveAspectRatio="xMidYMid meet">
<metadata>
Created by potrace 1.14, written by Peter Selinger 2001-2017
</metadata>
<g transform="translate(0.000000,700.000000) scale(0.100000,-0.100000)"
fill="#000000" stroke="none">
<path d="M49 6973 c-1 -16 0 -45 1 -67 1 -29 -4 -45 -24 -65 l-26 -27 24 -23
25 -23 0 -2362 c0 -1298 0 -2381 1 -2406 l0 -45 471 0 c259 0 473 -3 476 -8 3
-5 5 -220 5 -477 l-1 -469 447 0 c246 0 461 0 478 0 l30 -1 0 -471 c-1 -259 3
-473 7 -476 4 -2 1087 -5 2406 -5 l2399 0 22 -24 23 -23 29 24 c21 18 40 24
76 23 26 0 55 1 65 1 16 1 17 128 17 2521 l0 2520 -477 0 -478 0 0 478 0 477
-477 0 -478 0 0 478 0 477 -2520 0 -2520 0 -1 -27z m4896 -115 c7 -4 10 -147
9 -405 -1 -219 -2 -400 -3 -403 0 -3 -888 -5 -1972 -5 -1872 1 -1971 0 -1978
-17 -5 -13 -93 70 -414 391 -224 224 -407 415 -407 424 0 8 4 17 10 19 19 6
4745 2 4755 -4z m-3944 -2879 c0 -1009 0 -1846 -1 -1861 l0 -26 -405 0 c-223
0 -406 3 -406 7 -1 3 -2 1024 -3 2269 l-1 2262 408 -408 409 -409 -1 -1834z
m3954 1521 l0 -405 -1500 -5 c-1193 -4 -1499 -8 -1498 -17 2 -7 0 -13 -4 -13
-3 0 -188 181 -410 403 -290 289 -403 408 -403 425 l0 22 1907 -2 1908 -3 0
-405z m955 0 l0 -410 -410 0 -410 0 0 410 0 410 410 0 410 0 0 -410z m-3955
-2023 l0 -1382 -407 -1 -408 -2 0 22 c-1 17 -1 3136 0 3466 l0 95 408 -408
408 -408 -1 -1382z m2990 1474 c7 -1 10 -481 9 -1423 -1 -783 -2 -1426 -3
-1430 0 -5 -9 -8 -18 -8 -18 0 -2829 2805 -2839 2832 -3 10 -3 21 -1 25 4 6
2806 10 2852 4z m963 -1904 l2 -1907 -22 0 c-33 0 -838 807 -814 816 15 6 16
121 16 1498 0 821 2 1495 4 1497 3 2 186 4 408 4 l403 0 3 -1908z m950 1896
c10 -15 8 -4735 -2 -4751 -4 -6 -12 -12 -18 -12 -6 0 -195 183 -419 407 -320
320 -404 409 -390 414 16 7 17 111 16 1975 0 1083 3 1971 7 1974 3 3 185 5
402 5 289 0 399 -3 404 -12z m-2148 -2845 c0 -3 -589 -6 -1309 -6 l-1309 0 0
1316 0 1315 1309 -1309 c720 -720 1309 -1312 1309 -1316z m-2754 -551 l0 -407
-408 2 -409 3 0 398 c0 218 2 401 5 405 2 4 186 8 408 7 l403 0 1 -408z m3311
1 l408 -408 -1792 0 -1792 0 0 402 c0 222 5 405 9 408 5 3 628 5 1384 5 l1376
0 407 -407z m955 -955 l408 -408 -2262 1 c-1245 1 -2266 2 -2270 3 -10 2 -8
805 2 811 4 3 842 4 1861 3 l1853 -2 408 -408z"/>
</g>
</svg>
