<?xml version="1.0" encoding="UTF-8"?>
<svg id="Layer_2" data-name="Layer 2" xmlns="http://www.w3.org/2000/svg" viewBox="0 0 27 27">
  <defs>
    <style>
      .cls-1 {
        fill: #333;
        fill-rule: evenodd;
        stroke-width: 0px;
      }
    </style>
  </defs>
  <g id="Projects">
    <path class="cls-1" d="m13.51,0C6.04,0,0,6.19,0,13.84c0,6.12,3.87,11.3,9.24,13.13.67.14.92-.3.92-.66,0-.32-.02-1.42-.02-2.57-3.76.83-4.54-1.65-4.54-1.65-.6-1.6-1.5-2.02-1.5-2.02-1.23-.85.09-.85.09-.85,1.36.09,2.08,1.42,2.08,1.42,1.21,2.11,3.15,1.51,3.94,1.15.11-.89.47-1.51.85-1.86-3-.32-6.15-1.51-6.15-6.83,0-1.51.54-2.75,1.39-3.71-.13-.34-.6-1.76.13-3.67,0,0,1.14-.37,3.71,1.42,1.1-.3,2.24-.46,3.38-.46,1.14,0,2.3.16,3.38.46,2.57-1.79,3.71-1.42,3.71-1.42.74,1.9.27,3.32.13,3.67.87.96,1.39,2.2,1.39,3.71,0,5.32-3.15,6.49-6.17,6.83.49.44.92,1.26.92,2.57,0,1.86-.02,3.35-.02,3.8,0,.37.25.8.92.66,5.37-1.83,9.24-7.01,9.24-13.13.02-7.65-6.04-13.84-13.49-13.84Z"/>
  </g>
</svg>